<svg width="486" height="146" viewBox="0 0 486 146" fill="none" xmlns="http://www.w3.org/2000/svg">
<path fill-rule="evenodd" clip-rule="evenodd" d="M436.656 21.6299L403.293 146H420.686H481.357L485.976 128.78L439.534 128.724L468.265 21.6299H436.656Z" fill="white"/>
<path fill-rule="evenodd" clip-rule="evenodd" d="M318.822 21.6299L282.026 146H316.888L353.684 21.6299H318.822Z" fill="white"/>
<path fill-rule="evenodd" clip-rule="evenodd" d="M278.036 21.6299L254.465 91.9258H274.992L298.563 21.6299H278.036Z" fill="white"/>
<path fill-rule="evenodd" clip-rule="evenodd" d="M44.2815 -0.000488281L34.126 34.4104H5.20589L1.71644 46.2354L0.905762 50.4158H29.4029L2.79147 140.591H21.0362L47.6476 50.4158H80.6079L56.3624 140.591H88.1155L116.661 34.3784H84.9169L84.908 34.4104H52.3663L62.5262 -0.000488281H44.2815Z" fill="white"/>
<path fill-rule="evenodd" clip-rule="evenodd" d="M190.084 -0.000488281L179.054 34.4104H143.876L128.101 85.9108H147.019L157.894 50.4158H205.851L178.264 140.591H211.359L243.856 34.3784H210.756L210.743 34.4104H198.032L209.062 -0.000488281H190.084Z" fill="white"/>
<path fill-rule="evenodd" clip-rule="evenodd" d="M394.955 21.6299L359.197 146H378.556L414.318 21.6299H394.955Z" fill="white"/>
</svg>
