<svg width="229" height="62" viewBox="0 0 229 62" fill="none" xmlns="http://www.w3.org/2000/svg">
<path fill-rule="evenodd" clip-rule="evenodd" d="M56.3267 26.1665L64.8155 40.0458H70.0791L59.2314 22.0923L56.3267 26.1665Z" fill="white" stroke="white" stroke-width="0.834278"/>
<path fill-rule="evenodd" clip-rule="evenodd" d="M33.1481 1.66895L7.78613 38.1269H13.4596L33.1481 9.82599L34.8572 12.3191L38.0538 7.36972L33.1481 1.66895Z" fill="white" stroke="white" stroke-width="0.834278"/>
<path fill-rule="evenodd" clip-rule="evenodd" d="M61.4907 1.66895L54.5053 12.2092L47.5199 1.66895L40.7776 11.8418L40.7591 11.8144L23.3594 38.1269H28.7634L40.7838 19.9909L45.0654 26.4526L37.3285 38.1269H42.7361L47.7692 30.532L52.8032 38.1269H58.2108L46.0222 19.7518L46.0283 19.7483L43.4867 15.9115L47.5199 9.82599L51.8015 16.2886L49.9192 18.9385L53.0428 22.7762L61.4907 9.82599L80.2472 38.1269H85.6521L61.4907 1.66895Z" fill="white" stroke="white" stroke-width="0.834278"/>
<path fill-rule="evenodd" clip-rule="evenodd" d="M215.727 5.92578L206.749 39.9999H211.429H227.757L229 35.2822L216.501 35.2666L224.233 5.92578H215.727Z" fill="white"/>
<path fill-rule="evenodd" clip-rule="evenodd" d="M184.017 5.92578L174.114 39.9999H183.496L193.398 5.92578H184.017Z" fill="white"/>
<path fill-rule="evenodd" clip-rule="evenodd" d="M173.04 5.92578L166.697 25.185H172.221L178.564 5.92578H173.04Z" fill="white"/>
<path fill-rule="evenodd" clip-rule="evenodd" d="M110.133 0L107.4 9.42769H99.6177L98.6786 12.6674L98.4604 13.8127H106.129L98.9679 38.5185H103.878L111.039 13.8127H119.909L113.385 38.5185H121.93L129.612 9.41893H121.069L121.067 9.42769H112.309L115.043 0H110.133Z" fill="white"/>
<path fill-rule="evenodd" clip-rule="evenodd" d="M149.259 0L146.291 9.42769H136.824L132.579 23.5374H137.67L140.596 13.8127H153.502L146.078 38.5185H154.985L163.73 9.41893H154.822L154.819 9.42769H151.398L154.366 0H149.259Z" fill="white"/>
<path fill-rule="evenodd" clip-rule="evenodd" d="M204.504 5.92578L194.881 39.9999H200.091L209.715 5.92578H204.504Z" fill="white"/>
<path d="M43.9513 46.548L42.7153 45.78C42.4513 45.876 42.0433 45.924 41.6713 45.924C41.2993 45.924 38.7793 45.924 38.2513 45.924L37.6993 47.292H41.7433C41.5513 48.18 40.8553 49.62 40.0393 50.556C38.9833 51.744 37.6513 52.788 35.2033 53.532L36.6193 54.792C38.8753 53.904 40.3153 52.8 41.4553 51.408C42.5473 50.076 43.2313 48.48 43.5553 47.4C43.6513 47.1 43.8193 46.776 43.9513 46.548ZM40.0393 44.64L38.2753 44.064C38.1673 44.484 37.9153 45.036 37.7353 45.324C37.1473 46.356 36.0913 47.904 33.9913 49.188L35.3353 50.184C37.0633 49.008 38.4913 47.316 39.3073 45.864C39.4393 45.612 39.7513 45.06 40.0393 44.64ZM48.4393 44.796V46.356C48.7873 46.32 49.2913 46.308 49.6873 46.308C50.3953 46.308 53.6113 46.308 54.2713 46.308C54.7153 46.308 55.2793 46.332 55.5913 46.356V44.796C55.2673 44.844 54.6793 44.868 54.2953 44.868C53.5993 44.868 50.4433 44.868 49.6873 44.868C49.2793 44.868 48.7633 44.844 48.4393 44.796ZM56.6113 48.288L55.5433 47.616C55.3753 47.7 55.0513 47.748 54.6553 47.748C53.8393 47.748 49.5433 47.748 48.7273 47.748C48.3433 47.748 47.8393 47.712 47.3233 47.664V49.224C47.8273 49.188 48.4273 49.176 48.7273 49.176C49.7953 49.176 53.9113 49.176 54.5113 49.176C54.3073 49.836 53.9233 50.592 53.2873 51.24C52.3633 52.188 50.9353 52.968 49.1233 53.352L50.3233 54.708C51.8593 54.264 53.3953 53.46 54.6073 52.104C55.4953 51.12 56.0113 49.944 56.3833 48.78C56.4193 48.66 56.5273 48.444 56.6113 48.288ZM65.2273 44.208H63.3793C63.4513 44.724 63.4633 44.964 63.4633 45.312C63.4633 45.624 63.4633 46.512 63.4633 47.04H65.1433C65.1433 46.584 65.1433 45.624 65.1433 45.312C65.1433 44.964 65.1553 44.724 65.2273 44.208ZM69.2593 46.74L68.2273 46.104C68.0113 46.176 67.7233 46.224 67.2313 46.224H60.9073C60.4513 46.224 60.0913 46.212 59.6833 46.176C59.7313 46.452 59.7313 46.932 59.7313 47.196C59.7313 47.652 59.7313 48.888 59.7313 49.284C59.7313 49.608 59.7193 49.992 59.6833 50.292H61.3393C61.3033 50.052 61.2913 49.668 61.2913 49.404C61.2913 49.032 61.2913 48.06 61.2913 47.64H67.2433C67.0993 48.708 66.7873 49.848 66.1873 50.736C65.5033 51.696 64.4473 52.404 63.4633 52.776C62.9593 52.98 62.3113 53.16 61.7593 53.256L63.0073 54.696C65.1433 54.132 66.9553 52.86 67.9033 51.096C68.5033 50.004 68.8153 48.84 69.0313 47.688C69.0793 47.46 69.1753 47.004 69.2593 46.74ZM79.1353 45.072L78.1273 45.504C78.5713 46.116 78.8353 46.596 79.1953 47.352L80.2273 46.896C79.9633 46.344 79.4713 45.576 79.1353 45.072ZM80.7073 44.424L79.7113 44.892C80.1553 45.48 80.4433 45.924 80.8273 46.692L81.8353 46.188C81.5713 45.648 81.0673 44.904 80.7073 44.424ZM74.3593 53.028C74.3593 53.508 74.3113 54.228 74.2393 54.696H76.1113C76.0633 54.216 76.0033 53.376 76.0033 53.028C76.0033 52.14 76.0033 47.46 76.0033 46.128C76.0033 45.636 76.0633 45.108 76.1113 44.688H74.2273C74.3113 45.108 74.3593 45.696 74.3593 46.128C74.3593 47.148 74.3593 52.116 74.3593 53.028ZM75.6433 47.784V49.512C76.9513 49.944 78.9793 50.712 80.3353 51.42L81.0193 49.764C79.8313 49.176 77.2513 48.228 75.6433 47.784ZM84.6313 44.244V45.492H90.1153V44.244H84.6313ZM84.2233 46.764V48.024H90.3913V46.764H84.2233ZM84.1153 53.364V54.696H94.9753V53.364H84.1153ZM85.3273 51.096V52.392H93.7753V51.096H85.3273ZM87.9193 44.724V50.34H89.2633V44.724H87.9193ZM88.8073 50.148V54.348H90.2953V50.148H88.8073ZM90.8953 44.508V48.576H92.2033V44.508H90.8953ZM93.0913 43.956V49.068C93.0913 49.224 93.0313 49.272 92.8633 49.272C92.6833 49.284 92.0953 49.284 91.5433 49.26C91.7353 49.62 91.9273 50.16 91.9873 50.532C92.8273 50.532 93.4393 50.508 93.8833 50.304C94.3393 50.1 94.4593 49.764 94.4593 49.092V43.956H93.0913ZM85.5913 44.748V46.848C85.5913 47.832 85.4353 48.912 83.9713 49.668C84.2353 49.86 84.7273 50.4 84.9073 50.664C86.5753 49.764 86.9113 48.204 86.9113 46.884V44.748H85.5913ZM98.5033 53.532L99.6313 54.516C99.9193 54.324 100.183 54.24 100.339 54.192C103.171 53.268 105.667 51.828 107.311 49.872L106.459 48.504C104.923 50.388 102.247 51.924 100.291 52.476C100.291 51.564 100.291 47.568 100.291 46.236C100.291 45.78 100.339 45.336 100.399 44.88H98.5153C98.5873 45.216 98.6593 45.792 98.6593 46.236C98.6593 47.58 98.6593 51.84 98.6593 52.752C98.6593 53.028 98.6353 53.232 98.5033 53.532ZM111.655 44.88L110.515 46.092C111.391 46.692 112.903 48 113.527 48.672L114.751 47.424C114.043 46.692 112.483 45.444 111.655 44.88ZM110.143 52.872L111.163 54.456C112.843 54.168 114.391 53.508 115.615 52.776C117.547 51.612 119.143 49.956 120.043 48.324L119.119 46.644C118.351 48.264 116.791 50.088 114.739 51.312C113.575 51.996 112.027 52.608 110.143 52.872ZM126.499 48.384L125.431 49.476C126.835 50.364 129.115 52.044 130.159 53.028L131.311 51.66C130.195 50.772 127.975 49.236 126.499 48.384ZM132.151 46.344L130.927 45.588C130.651 45.672 130.255 45.732 129.883 45.732H126.463L125.911 47.088H129.967C129.739 48.024 128.995 49.404 128.191 50.352C127.159 51.552 125.731 52.812 123.223 53.592L124.615 54.792C126.907 53.928 128.443 52.584 129.571 51.18C130.651 49.848 131.383 48.312 131.743 47.208C131.851 46.908 132.007 46.572 132.151 46.344ZM128.179 44.496L126.439 43.956C126.331 44.376 126.079 44.928 125.899 45.216C125.287 46.26 124.183 47.904 122.083 49.2L123.367 50.196C125.095 49.008 126.631 47.172 127.435 45.72C127.579 45.468 127.891 44.916 128.179 44.496ZM139.987 53.736L140.995 54.564C141.115 54.48 141.259 54.348 141.511 54.216C142.867 53.532 144.583 52.236 145.579 50.94L144.667 49.608C143.851 50.772 142.675 51.72 141.691 52.14C141.691 51.408 141.691 46.836 141.691 45.876C141.691 45.336 141.775 44.856 141.775 44.832H139.999C139.999 44.856 140.083 45.324 140.083 45.864C140.083 46.836 140.083 52.224 140.083 52.86C140.083 53.184 140.047 53.508 139.987 53.736ZM134.431 53.568L135.895 54.54C136.927 53.628 137.671 52.44 138.043 51.096C138.355 49.884 138.391 47.352 138.391 45.924C138.391 45.432 138.475 44.892 138.475 44.844H136.711C136.783 45.144 136.831 45.456 136.831 45.948C136.831 47.388 136.819 49.668 136.471 50.688C136.147 51.72 135.499 52.824 134.431 53.568ZM150.259 44.508L149.395 45.828C150.187 46.272 151.435 47.076 152.107 47.544L152.995 46.224C152.371 45.78 151.051 44.94 150.259 44.508ZM148.039 53.028L148.939 54.6C149.995 54.408 151.723 53.808 152.947 53.124C154.903 51.984 156.607 50.472 157.711 48.804L156.787 47.172C155.839 48.888 154.159 50.532 152.119 51.672C150.811 52.392 149.383 52.8 148.039 53.028ZM148.411 47.244L147.547 48.564C148.351 48.996 149.599 49.8 150.271 50.28L151.159 48.936C150.535 48.492 149.215 47.676 148.411 47.244ZM169.159 45.876L168.187 45.144C167.935 45.228 167.467 45.288 166.939 45.288C166.411 45.288 163.339 45.288 162.703 45.288C162.355 45.288 161.611 45.252 161.287 45.204V46.92C161.551 46.896 162.211 46.836 162.703 46.836C163.219 46.836 166.279 46.836 166.783 46.836C166.507 47.688 165.775 48.876 164.983 49.776C163.855 51.024 162.007 52.488 160.063 53.208L161.311 54.504C163.171 53.628 164.983 52.14 166.327 50.592C167.359 49.392 168.247 47.76 168.739 46.62C168.847 46.368 169.063 46.008 169.159 45.876ZM166.483 49.596L165.355 50.712C166.639 51.876 167.947 53.304 168.835 54.54L170.203 53.352C169.423 52.392 167.719 50.604 166.483 49.596ZM174.175 44.808V46.356C174.535 46.332 175.051 46.308 175.459 46.308C176.215 46.308 179.575 46.308 180.283 46.308C180.691 46.308 181.159 46.332 181.567 46.356V44.808C181.159 44.856 180.679 44.892 180.283 44.892C179.575 44.892 176.215 44.892 175.459 44.892C175.051 44.892 174.559 44.856 174.175 44.808ZM172.771 47.868V49.44C173.107 49.416 173.575 49.404 173.923 49.404C174.679 49.404 181.075 49.404 181.783 49.404C182.119 49.404 182.575 49.416 182.887 49.428V47.868C182.563 47.928 182.035 47.94 181.783 47.94C181.075 47.94 174.679 47.94 173.923 47.94C173.551 47.94 173.131 47.916 172.771 47.868ZM178.915 48.708L177.247 48.72C177.247 50.004 177.079 51.132 176.479 52.044C176.011 52.752 175.159 53.436 174.307 53.772L175.723 54.792C176.779 54.24 177.715 53.316 178.123 52.476C178.639 51.48 178.915 50.28 178.915 48.708ZM190.648 44.952L188.74 44.568C188.692 44.964 188.632 45.348 188.464 45.948C188.068 47.34 186.82 51.276 186.172 52.812L187.936 52.752C188.452 51.504 189.7 47.64 190.144 46.296C190.324 45.756 190.492 45.312 190.648 44.952ZM192.796 48.828L191.308 49.452C192.16 50.604 193.276 53.088 193.816 54.54L195.436 53.82C194.884 52.488 193.66 50.124 192.796 48.828ZM186.052 52.272C185.668 52.284 185.14 52.296 184.732 52.284L185.02 54.048C185.392 54 185.848 53.94 186.148 53.904C187.768 53.736 191.896 53.304 193.672 53.076L193.324 51.54C191.644 51.768 187.72 52.212 186.052 52.272Z" fill="white"/>
</svg>
